<?xml version="1.0" encoding="utf-8" standalone="no"?>
<!DOCTYPE svg PUBLIC "-//W3C//DTD SVG 1.1//EN"
  "http://www.w3.org/Graphics/SVG/1.1/DTD/svg11.dtd">
<svg xmlns:xlink="http://www.w3.org/1999/xlink" width="1440pt" height="720pt" viewBox="0 0 1440 720" xmlns="http://www.w3.org/2000/svg" version="1.1">
 <metadata>
  <rdf:RDF xmlns:dc="http://purl.org/dc/elements/1.1/" xmlns:cc="http://creativecommons.org/ns#" xmlns:rdf="http://www.w3.org/1999/02/22-rdf-syntax-ns#">
   <cc:Work>
    <dc:type rdf:resource="http://purl.org/dc/dcmitype/StillImage"/>
    <dc:date>2023-12-17T20:24:21.643634</dc:date>
    <dc:format>image/svg+xml</dc:format>
    <dc:creator>
     <cc:Agent>
      <dc:title>Matplotlib v3.8.0, https://matplotlib.org/</dc:title>
     </cc:Agent>
    </dc:creator>
   </cc:Work>
  </rdf:RDF>
 </metadata>
 <defs>
  <style type="text/css">*{stroke-linejoin: round; stroke-linecap: butt}</style>
 </defs>
 <g id="figure_1">
  <g id="patch_1">
   <path d="M 0 720 
L 1440 720 
L 1440 0 
L 0 0 
L 0 720 
z
" style="fill: none"/>
  </g>
  <g id="axes_1">
   <g id="patch_2">
    <path d="M 575.978182 221.52 
C 575.978182 213.308593 575.294058 205.111441 573.932913 197.013634 
C 572.571767 188.915826 570.538326 180.945479 567.853696 173.185326 
L 428.138182 221.52 
z
" style="fill: #1f77b4"/>
   </g>
   <g id="patch_3">
    <path d="M 567.853696 173.185326 
C 565.174447 165.440728 561.855892 157.932292 557.932342 150.737646 
C 554.008791 143.543 549.493813 136.687025 544.434086 130.240603 
L 428.138182 221.52 
z
" style="fill: #ff7f0e"/>
   </g>
   <g id="patch_4">
    <path d="M 544.434086 130.240603 
C 539.37944 123.800655 533.798594 117.791675 527.74913 112.275665 
C 521.699666 106.759655 515.202463 101.755652 508.32456 97.315288 
L 428.138182 221.52 
z
" style="fill: #2ca02c"/>
   </g>
   <g id="patch_5">
    <path d="M 508.32456 97.315288 
C 501.460484 92.883851 494.240856 89.029037 486.739869 85.790461 
C 479.238883 82.551885 471.482323 79.940679 463.549901 77.983678 
L 428.138182 221.52 
z
" style="fill: #d62728"/>
   </g>
   <g id="patch_6">
    <path d="M 463.549901 77.983678 
C 455.641446 76.03259 447.585253 74.738436 439.463614 74.114436 
C 431.341975 73.490436 423.18264 73.538722 415.068955 74.2588 
L 428.138182 221.52 
z
" style="fill: #9467bd"/>
   </g>
   <g id="patch_7">
    <path d="M 415.068955 74.2588 
C 406.963467 74.978151 398.931189 76.365484 391.054006 78.406655 
C 383.176822 80.447827 375.481592 83.135877 368.046764 86.443403 
L 428.138182 221.52 
z
" style="fill: #8c564b"/>
   </g>
   <g id="patch_8">
    <path d="M 368.046764 86.443403 
C 360.611936 89.750929 353.46286 93.666653 346.672417 98.150657 
C 339.881975 102.634661 333.473319 107.671655 327.511782 113.21029 
L 428.138182 221.52 
z
" style="fill: #e377c2"/>
   </g>
   <g id="patch_9">
    <path d="M 327.511782 113.21029 
C 321.562302 118.737724 316.07836 124.745981 311.115634 131.174059 
C 306.152909 137.602137 301.728254 144.428206 297.886595 151.582959 
L 428.138182 221.52 
z
" style="fill: #7f7f7f"/>
   </g>
   <g id="patch_10">
    <path d="M 297.886595 151.582959 
C 294.048828 158.730462 290.805889 166.181746 288.190638 173.86131 
C 285.575387 181.540875 283.596687 189.422692 282.274588 197.426897 
L 428.138182 221.52 
z
" style="fill: #bcbd22"/>
   </g>
   <g id="patch_11">
    <path d="M 282.274588 197.426897 
C 280.955171 205.414865 280.294151 213.497735 280.2982 221.593936 
C 280.302249 229.690137 280.971353 237.772342 282.298759 245.758986 
L 428.138182 221.52 
z
" style="fill: #17becf"/>
   </g>
   <g id="patch_12">
    <path d="M 282.298759 245.758986 
C 283.624816 253.737512 285.603369 261.593783 288.214491 269.248674 
C 290.825613 276.903565 294.060508 284.331291 297.886597 291.457044 
L 428.138182 221.52 
z
" style="fill: #1f77b4"/>
   </g>
   <g id="patch_13">
    <path d="M 297.886597 291.457044 
C 301.7049 298.568298 306.099171 305.354926 311.025332 311.748853 
C 315.951493 318.142781 321.393018 324.122558 327.295325 329.628204 
L 428.138182 221.52 
z
" style="fill: #ff7f0e"/>
   </g>
   <g id="patch_14">
    <path d="M 327.295325 329.628204 
C 333.155513 335.094562 339.45048 340.075388 346.11798 344.521432 
C 352.78548 348.967475 359.803464 352.864032 367.102534 356.172572 
L 428.138182 221.52 
z
" style="fill: #2ca02c"/>
   </g>
   <g id="patch_15">
    <path d="M 367.102534 356.172572 
C 374.386614 359.474318 381.926614 362.179575 389.648279 364.2617 
C 397.369944 366.343826 405.247843 367.795963 413.204396 368.603812 
L 428.138182 221.52 
z
" style="fill: #d62728"/>
   </g>
   <g id="patch_16">
    <path d="M 413.204396 368.603812 
C 421.079088 369.403349 429.005287 369.569194 436.906531 369.099747 
C 444.807774 368.6303 452.658573 367.527075 460.38319 365.800716 
L 428.138182 221.52 
z
" style="fill: #9467bd"/>
   </g>
   <g id="patch_17">
    <path d="M 460.38319 365.800716 
C 467.923124 364.115631 475.31938 361.842095 482.50397 359.001005 
C 489.688559 356.159915 496.639399 352.760005 503.292596 348.832527 
L 428.138182 221.52 
z
" style="fill: #8c564b"/>
   </g>
   <g id="patch_18">
    <path d="M 503.292596 348.832527 
C 509.733251 345.030516 515.876119 340.745238 521.668274 336.013613 
C 527.460428 331.281989 532.885187 326.117647 537.895811 320.565083 
L 428.138182 221.52 
z
" style="fill: #e377c2"/>
   </g>
   <g id="patch_19">
    <path d="M 537.895811 320.565083 
C 542.294767 315.690344 546.364082 310.527955 550.076719 305.112217 
C 553.789356 299.696479 557.137073 294.039415 560.097627 288.178612 
L 428.138182 221.52 
z
" style="fill: #7f7f7f"/>
   </g>
   <g id="patch_20">
    <path d="M 560.097627 288.178612 
C 562.969189 282.493977 565.470424 276.629724 567.585694 270.622514 
C 569.700964 264.615304 571.425851 258.477682 572.749573 252.248019 
L 428.138182 221.52 
z
" style="fill: #bcbd22"/>
   </g>
   <g id="patch_21">
    <path d="M 572.749573 252.248019 
C 573.822086 247.200584 574.629606 242.100458 575.168814 236.968583 
C 575.708023 231.836708 575.978182 226.680121 575.978182 221.519997 
L 428.138182 221.52 
z
" style="fill: #17becf"/>
   </g>
   <g id="matplotlib.axis_1"/>
   <g id="matplotlib.axis_2"/>
   <g id="text_1">
    <!-- 20NG -->
    <g transform="translate(401.301682 67.68) scale(0.192 -0.192)">
     <defs>
      <path id="DejaVuSans-32" d="M 1228 531 
L 3431 531 
L 3431 0 
L 469 0 
L 469 531 
Q 828 903 1448 1529 
Q 2069 2156 2228 2338 
Q 2531 2678 2651 2914 
Q 2772 3150 2772 3378 
Q 2772 3750 2511 3984 
Q 2250 4219 1831 4219 
Q 1534 4219 1204 4116 
Q 875 4013 500 3803 
L 500 4441 
Q 881 4594 1212 4672 
Q 1544 4750 1819 4750 
Q 2544 4750 2975 4387 
Q 3406 4025 3406 3419 
Q 3406 3131 3298 2873 
Q 3191 2616 2906 2266 
Q 2828 2175 2409 1742 
Q 1991 1309 1228 531 
z
" transform="scale(0.015625)"/>
      <path id="DejaVuSans-30" d="M 2034 4250 
Q 1547 4250 1301 3770 
Q 1056 3291 1056 2328 
Q 1056 1369 1301 889 
Q 1547 409 2034 409 
Q 2525 409 2770 889 
Q 3016 1369 3016 2328 
Q 3016 3291 2770 3770 
Q 2525 4250 2034 4250 
z
M 2034 4750 
Q 2819 4750 3233 4129 
Q 3647 3509 3647 2328 
Q 3647 1150 3233 529 
Q 2819 -91 2034 -91 
Q 1250 -91 836 529 
Q 422 1150 422 2328 
Q 422 3509 836 4129 
Q 1250 4750 2034 4750 
z
" transform="scale(0.015625)"/>
      <path id="DejaVuSans-4e" d="M 628 4666 
L 1478 4666 
L 3547 763 
L 3547 4666 
L 4159 4666 
L 4159 0 
L 3309 0 
L 1241 3903 
L 1241 0 
L 628 0 
L 628 4666 
z
" transform="scale(0.015625)"/>
      <path id="DejaVuSans-47" d="M 3809 666 
L 3809 1919 
L 2778 1919 
L 2778 2438 
L 4434 2438 
L 4434 434 
Q 4069 175 3628 42 
Q 3188 -91 2688 -91 
Q 1594 -91 976 548 
Q 359 1188 359 2328 
Q 359 3472 976 4111 
Q 1594 4750 2688 4750 
Q 3144 4750 3555 4637 
Q 3966 4525 4313 4306 
L 4313 3634 
Q 3963 3931 3569 4081 
Q 3175 4231 2741 4231 
Q 1884 4231 1454 3753 
Q 1025 3275 1025 2328 
Q 1025 1384 1454 906 
Q 1884 428 2741 428 
Q 3075 428 3337 486 
Q 3600 544 3809 666 
z
" transform="scale(0.015625)"/>
     </defs>
     <use xlink:href="#DejaVuSans-32"/>
     <use xlink:href="#DejaVuSans-30" x="63.623047"/>
     <use xlink:href="#DejaVuSans-4e" x="127.246094"/>
     <use xlink:href="#DejaVuSans-47" x="202.050781"/>
    </g>
   </g>
  </g>
  <g id="axes_2">
   <g id="patch_22">
    <path d="M 1159.701818 221.52 
C 1159.701818 182.325432 1144.11523 144.696078 1116.400485 116.981333 
C 1088.68574 89.266589 1051.056386 73.68 1011.861818 73.68 
C 972.66725 73.68 935.037897 89.266589 907.323152 116.981333 
C 879.608407 144.696078 864.021818 182.325432 864.021818 221.52 
L 1011.861818 221.52 
z
" style="fill: #1f77b4"/>
   </g>
   <g id="patch_23">
    <path d="M 864.021818 221.52 
C 864.021818 260.714568 879.608407 298.343922 907.323152 326.058667 
C 935.037897 353.773411 972.66725 369.36 1011.861818 369.36 
C 1051.056386 369.36 1088.68574 353.773411 1116.400485 326.058667 
C 1144.11523 298.343922 1159.701818 260.714568 1159.701818 221.52 
L 1011.861818 221.52 
z
" style="fill: #ff7f0e"/>
   </g>
   <g id="matplotlib.axis_3"/>
   <g id="matplotlib.axis_4"/>
   <g id="text_2">
    <!-- MR -->
    <g transform="translate(996.908318 67.68) scale(0.192 -0.192)">
     <defs>
      <path id="DejaVuSans-4d" d="M 628 4666 
L 1569 4666 
L 2759 1491 
L 3956 4666 
L 4897 4666 
L 4897 0 
L 4281 0 
L 4281 4097 
L 3078 897 
L 2444 897 
L 1241 4097 
L 1241 0 
L 628 0 
L 628 4666 
z
" transform="scale(0.015625)"/>
      <path id="DejaVuSans-52" d="M 2841 2188 
Q 3044 2119 3236 1894 
Q 3428 1669 3622 1275 
L 4263 0 
L 3584 0 
L 2988 1197 
Q 2756 1666 2539 1819 
Q 2322 1972 1947 1972 
L 1259 1972 
L 1259 0 
L 628 0 
L 628 4666 
L 2053 4666 
Q 2853 4666 3247 4331 
Q 3641 3997 3641 3322 
Q 3641 2881 3436 2590 
Q 3231 2300 2841 2188 
z
M 1259 4147 
L 1259 2491 
L 2053 2491 
Q 2509 2491 2742 2702 
Q 2975 2913 2975 3322 
Q 2975 3731 2742 3939 
Q 2509 4147 2053 4147 
L 1259 4147 
z
" transform="scale(0.015625)"/>
     </defs>
     <use xlink:href="#DejaVuSans-4d"/>
     <use xlink:href="#DejaVuSans-52" x="86.279297"/>
    </g>
   </g>
  </g>
  <g id="axes_3">
   <g id="patch_24">
    <path d="M 575.978182 554.88 
C 575.978182 530.170741 569.783504 505.851275 557.962547 484.153062 
C 546.14159 462.454848 529.06731 444.062474 508.306377 430.663552 
L 428.138182 554.88 
z
" style="fill: #1f77b4"/>
   </g>
   <g id="patch_25">
    <path d="M 508.306377 430.663552 
C 490.128949 418.932001 469.596009 411.33223 448.160923 408.402167 
C 426.725838 405.472105 404.90657 407.282554 384.247537 413.705367 
L 428.138182 554.88 
z
" style="fill: #ff7f0e"/>
   </g>
   <g id="patch_26">
    <path d="M 384.247537 413.705367 
C 368.307253 418.66114 353.320836 426.281078 339.925133 436.241374 
C 326.52943 446.201669 314.916919 458.359207 305.581071 472.197353 
L 428.138182 554.88 
z
" style="fill: #2ca02c"/>
   </g>
   <g id="patch_27">
    <path d="M 305.581071 472.197353 
C 299.056206 481.868893 293.699056 492.278884 289.62153 503.209865 
C 285.544005 514.140845 282.774695 525.516164 281.371452 537.098196 
L 428.138182 554.88 
z
" style="fill: #d62728"/>
   </g>
   <g id="patch_28">
    <path d="M 281.371452 537.098196 
C 279.978309 548.596862 279.941301 560.219514 281.261191 571.726819 
C 282.581081 583.234123 285.248747 594.546549 289.209255 605.43115 
L 428.138182 554.88 
z
" style="fill: #9467bd"/>
   </g>
   <g id="patch_29">
    <path d="M 289.209255 605.43115 
C 292.144103 613.496947 295.775798 621.291862 300.063163 628.727513 
C 304.350528 636.163165 309.277298 643.211345 314.787613 649.792139 
L 428.138182 554.88 
z
" style="fill: #8c564b"/>
   </g>
   <g id="patch_30">
    <path d="M 314.787613 649.792139 
C 319.544536 655.473182 324.721829 660.788575 330.27571 665.693366 
C 335.82959 670.598158 341.744357 675.078482 347.969989 679.09645 
L 428.138182 554.88 
z
" style="fill: #e377c2"/>
   </g>
   <g id="patch_31">
    <path d="M 347.969989 679.09645 
C 353.984395 682.978094 360.272784 686.417803 366.785514 689.388422 
C 373.298244 692.359042 380.018133 694.852736 386.892135 696.849818 
L 428.138182 554.88 
z
" style="fill: #7f7f7f"/>
   </g>
   <g id="patch_32">
    <path d="M 386.892135 696.849818 
C 393.38394 698.735862 399.997472 700.174414 406.686154 701.155343 
C 413.374837 702.136273 420.122932 702.657272 426.882917 702.714671 
L 428.138182 554.88 
z
" style="fill: #bcbd22"/>
   </g>
   <g id="patch_33">
    <path d="M 426.882917 702.714671 
C 432.114283 702.75909 437.34432 702.525798 442.550955 702.015779 
C 447.757589 701.50576 452.933483 700.719733 458.05679 699.661016 
L 428.138182 554.88 
z
" style="fill: #17becf"/>
   </g>
   <g id="patch_34">
    <path d="M 458.05679 699.661016 
C 462.831565 698.674321 467.554608 697.452027 472.2086 695.998616 
C 476.862592 694.545205 481.441837 692.862455 485.929545 690.956537 
L 428.138182 554.88 
z
" style="fill: #1f77b4"/>
   </g>
   <g id="patch_35">
    <path d="M 485.929545 690.956537 
C 490.224573 689.132449 494.430833 687.106036 498.534196 684.884103 
C 502.637558 682.66217 506.633424 680.247209 510.508369 677.647332 
L 428.138182 554.88 
z
" style="fill: #ff7f0e"/>
   </g>
   <g id="patch_36">
    <path d="M 510.508369 677.647332 
C 514.261637 675.129094 517.897449 672.440062 521.404347 669.58871 
C 524.911245 666.737357 528.285541 663.726684 531.5166 660.566178 
L 428.138182 554.88 
z
" style="fill: #2ca02c"/>
   </g>
   <g id="patch_37">
    <path d="M 531.5166 660.566178 
C 534.433434 657.713036 537.230902 654.740364 539.901818 651.655799 
C 542.572734 648.571233 545.11481 645.377417 547.521514 642.082555 
L 428.138182 554.88 
z
" style="fill: #d62728"/>
   </g>
   <g id="patch_38">
    <path d="M 547.521514 642.082555 
C 549.162884 639.835462 550.740483 637.542475 552.252426 635.206334 
C 553.764369 632.870194 555.210052 630.491831 556.587748 628.074088 
L 428.138182 554.88 
z
" style="fill: #9467bd"/>
   </g>
   <g id="patch_39">
    <path d="M 556.587748 628.074088 
C 557.924004 625.729069 559.195793 623.347897 560.401683 620.93325 
C 561.607574 618.518602 562.747115 616.071384 563.819024 613.594348 
L 428.138182 554.88 
z
" style="fill: #8c564b"/>
   </g>
   <g id="patch_40">
    <path d="M 563.819024 613.594348 
C 564.857691 611.194129 565.832486 608.766771 566.742378 606.314837 
C 567.652269 603.862904 568.496938 601.387257 569.275492 598.890512 
L 428.138182 554.88 
z
" style="fill: #e377c2"/>
   </g>
   <g id="patch_41">
    <path d="M 569.275492 598.890512 
C 569.811121 597.172805 570.315347 595.445462 570.787919 593.709347 
C 571.26049 591.973233 571.701328 590.228636 572.110212 588.476428 
L 428.138182 554.88 
z
" style="fill: #7f7f7f"/>
   </g>
   <g id="patch_42">
    <path d="M 572.110212 588.476428 
C 572.466795 586.94835 572.799028 585.414692 573.106783 583.876037 
C 573.414539 582.337382 573.697779 580.793925 573.956395 579.246253 
L 428.138182 554.88 
z
" style="fill: #bcbd22"/>
   </g>
   <g id="patch_43">
    <path d="M 573.956395 579.246253 
C 574.173632 577.946216 574.373473 576.643332 574.555865 575.33795 
C 574.738257 574.032569 574.903184 572.724806 575.050601 571.415014 
L 428.138182 554.88 
z
" style="fill: #17becf"/>
   </g>
   <g id="patch_44">
    <path d="M 575.050601 571.415014 
C 575.198018 570.105221 575.327913 568.793516 575.44025 567.48025 
C 575.552587 566.166984 575.647357 564.852274 575.724533 563.536473 
L 428.138182 554.88 
z
" style="fill: #1f77b4"/>
   </g>
   <g id="patch_45">
    <path d="M 575.724533 563.536473 
C 575.785784 562.492193 575.835949 561.447291 575.875021 560.401946 
C 575.914093 559.356601 575.942069 558.31087 575.958944 557.264931 
L 428.138182 554.88 
z
" style="fill: #ff7f0e"/>
   </g>
   <g id="patch_46">
    <path d="M 575.958944 557.264931 
C 575.965356 556.867477 575.970166 556.469999 575.973372 556.072507 
C 575.976579 555.675014 575.978182 555.27751 575.978182 554.880005 
L 428.138182 554.88 
z
" style="fill: #2ca02c"/>
   </g>
   <g id="matplotlib.axis_5"/>
   <g id="matplotlib.axis_6"/>
   <g id="text_3">
    <!-- Ohsumed -->
    <g transform="translate(382.059682 401.04) scale(0.192 -0.192)">
     <defs>
      <path id="DejaVuSans-4f" d="M 2522 4238 
Q 1834 4238 1429 3725 
Q 1025 3213 1025 2328 
Q 1025 1447 1429 934 
Q 1834 422 2522 422 
Q 3209 422 3611 934 
Q 4013 1447 4013 2328 
Q 4013 3213 3611 3725 
Q 3209 4238 2522 4238 
z
M 2522 4750 
Q 3503 4750 4090 4092 
Q 4678 3434 4678 2328 
Q 4678 1225 4090 567 
Q 3503 -91 2522 -91 
Q 1538 -91 948 565 
Q 359 1222 359 2328 
Q 359 3434 948 4092 
Q 1538 4750 2522 4750 
z
" transform="scale(0.015625)"/>
      <path id="DejaVuSans-68" d="M 3513 2113 
L 3513 0 
L 2938 0 
L 2938 2094 
Q 2938 2591 2744 2837 
Q 2550 3084 2163 3084 
Q 1697 3084 1428 2787 
Q 1159 2491 1159 1978 
L 1159 0 
L 581 0 
L 581 4863 
L 1159 4863 
L 1159 2956 
Q 1366 3272 1645 3428 
Q 1925 3584 2291 3584 
Q 2894 3584 3203 3211 
Q 3513 2838 3513 2113 
z
" transform="scale(0.015625)"/>
      <path id="DejaVuSans-73" d="M 2834 3397 
L 2834 2853 
Q 2591 2978 2328 3040 
Q 2066 3103 1784 3103 
Q 1356 3103 1142 2972 
Q 928 2841 928 2578 
Q 928 2378 1081 2264 
Q 1234 2150 1697 2047 
L 1894 2003 
Q 2506 1872 2764 1633 
Q 3022 1394 3022 966 
Q 3022 478 2636 193 
Q 2250 -91 1575 -91 
Q 1294 -91 989 -36 
Q 684 19 347 128 
L 347 722 
Q 666 556 975 473 
Q 1284 391 1588 391 
Q 1994 391 2212 530 
Q 2431 669 2431 922 
Q 2431 1156 2273 1281 
Q 2116 1406 1581 1522 
L 1381 1569 
Q 847 1681 609 1914 
Q 372 2147 372 2553 
Q 372 3047 722 3315 
Q 1072 3584 1716 3584 
Q 2034 3584 2315 3537 
Q 2597 3491 2834 3397 
z
" transform="scale(0.015625)"/>
      <path id="DejaVuSans-75" d="M 544 1381 
L 544 3500 
L 1119 3500 
L 1119 1403 
Q 1119 906 1312 657 
Q 1506 409 1894 409 
Q 2359 409 2629 706 
Q 2900 1003 2900 1516 
L 2900 3500 
L 3475 3500 
L 3475 0 
L 2900 0 
L 2900 538 
Q 2691 219 2414 64 
Q 2138 -91 1772 -91 
Q 1169 -91 856 284 
Q 544 659 544 1381 
z
M 1991 3584 
L 1991 3584 
z
" transform="scale(0.015625)"/>
      <path id="DejaVuSans-6d" d="M 3328 2828 
Q 3544 3216 3844 3400 
Q 4144 3584 4550 3584 
Q 5097 3584 5394 3201 
Q 5691 2819 5691 2113 
L 5691 0 
L 5113 0 
L 5113 2094 
Q 5113 2597 4934 2840 
Q 4756 3084 4391 3084 
Q 3944 3084 3684 2787 
Q 3425 2491 3425 1978 
L 3425 0 
L 2847 0 
L 2847 2094 
Q 2847 2600 2669 2842 
Q 2491 3084 2119 3084 
Q 1678 3084 1418 2786 
Q 1159 2488 1159 1978 
L 1159 0 
L 581 0 
L 581 3500 
L 1159 3500 
L 1159 2956 
Q 1356 3278 1631 3431 
Q 1906 3584 2284 3584 
Q 2666 3584 2933 3390 
Q 3200 3197 3328 2828 
z
" transform="scale(0.015625)"/>
      <path id="DejaVuSans-65" d="M 3597 1894 
L 3597 1613 
L 953 1613 
Q 991 1019 1311 708 
Q 1631 397 2203 397 
Q 2534 397 2845 478 
Q 3156 559 3463 722 
L 3463 178 
Q 3153 47 2828 -22 
Q 2503 -91 2169 -91 
Q 1331 -91 842 396 
Q 353 884 353 1716 
Q 353 2575 817 3079 
Q 1281 3584 2069 3584 
Q 2775 3584 3186 3129 
Q 3597 2675 3597 1894 
z
M 3022 2063 
Q 3016 2534 2758 2815 
Q 2500 3097 2075 3097 
Q 1594 3097 1305 2825 
Q 1016 2553 972 2059 
L 3022 2063 
z
" transform="scale(0.015625)"/>
      <path id="DejaVuSans-64" d="M 2906 2969 
L 2906 4863 
L 3481 4863 
L 3481 0 
L 2906 0 
L 2906 525 
Q 2725 213 2448 61 
Q 2172 -91 1784 -91 
Q 1150 -91 751 415 
Q 353 922 353 1747 
Q 353 2572 751 3078 
Q 1150 3584 1784 3584 
Q 2172 3584 2448 3432 
Q 2725 3281 2906 2969 
z
M 947 1747 
Q 947 1113 1208 752 
Q 1469 391 1925 391 
Q 2381 391 2643 752 
Q 2906 1113 2906 1747 
Q 2906 2381 2643 2742 
Q 2381 3103 1925 3103 
Q 1469 3103 1208 2742 
Q 947 2381 947 1747 
z
" transform="scale(0.015625)"/>
     </defs>
     <use xlink:href="#DejaVuSans-4f"/>
     <use xlink:href="#DejaVuSans-68" x="78.710938"/>
     <use xlink:href="#DejaVuSans-73" x="142.089844"/>
     <use xlink:href="#DejaVuSans-75" x="194.189453"/>
     <use xlink:href="#DejaVuSans-6d" x="257.568359"/>
     <use xlink:href="#DejaVuSans-65" x="354.980469"/>
     <use xlink:href="#DejaVuSans-64" x="416.503906"/>
    </g>
   </g>
  </g>
  <g id="axes_4">
   <g id="patch_47">
    <path d="M 1159.701818 554.88 
C 1159.701818 535.027831 1155.703151 515.37753 1147.944919 497.104095 
C 1140.186687 478.830659 1128.82667 462.305718 1114.544145 448.517387 
C 1100.261619 434.729056 1083.347051 423.957749 1064.811853 416.847542 
C 1046.276655 409.737335 1026.49778 406.432828 1006.657914 407.131616 
C 986.818047 407.830404 967.320675 412.518275 949.33165 420.914916 
C 931.342625 429.311558 915.227792 441.246206 901.950744 456.005224 
C 888.673696 470.764242 878.50445 488.047473 872.05108 506.821461 
C 865.59771 525.595449 862.991459 545.478385 864.388169 565.28136 
L 1011.861818 554.88 
z
" style="fill: #1f77b4"/>
   </g>
   <g id="patch_48">
    <path d="M 864.388169 565.28136 
C 866.022193 588.44906 873.092827 610.908967 885.025094 630.834664 
C 896.957361 650.760361 913.418809 667.596689 933.070814 679.974537 
C 952.722818 692.352385 975.017844 699.926887 998.142884 702.082094 
C 1021.267924 704.2373 1044.57868 700.913164 1066.179549 692.379999 
L 1011.861818 554.88 
z
" style="fill: #ff7f0e"/>
   </g>
   <g id="patch_49">
    <path d="M 1066.179549 692.379999 
C 1073.200453 689.606475 1079.998628 686.299277 1086.514407 682.487432 
C 1093.030185 678.675587 1099.244449 674.37028 1105.102656 669.609298 
L 1011.861818 554.88 
z
" style="fill: #2ca02c"/>
   </g>
   <g id="patch_50">
    <path d="M 1105.102656 669.609298 
C 1110.208409 665.459837 1115.03148 660.974171 1119.539694 656.182225 
C 1124.047907 651.390278 1128.231216 646.30273 1132.061712 640.953521 
L 1011.861818 554.88 
z
" style="fill: #d62728"/>
   </g>
   <g id="patch_51">
    <path d="M 1132.061712 640.953521 
C 1135.504214 636.146139 1138.655211 631.13656 1141.497719 625.951786 
C 1144.340228 620.767012 1146.869131 615.416376 1149.070799 609.928717 
L 1011.861818 554.88 
z
" style="fill: #9467bd"/>
   </g>
   <g id="patch_52">
    <path d="M 1149.070799 609.928717 
C 1151.107065 604.853321 1152.860154 599.668849 1154.32198 594.39921 
C 1155.783806 589.129571 1156.952118 583.782879 1157.82153 578.383791 
L 1011.861818 554.88 
z
" style="fill: #8c564b"/>
   </g>
   <g id="patch_53">
    <path d="M 1157.82153 578.383791 
C 1158.28342 575.51543 1158.660657 572.634077 1158.952751 569.743486 
C 1159.244844 566.852895 1159.451666 563.954322 1159.572947 561.051543 
L 1011.861818 554.88 
z
" style="fill: #e377c2"/>
   </g>
   <g id="patch_54">
    <path d="M 1159.572947 561.051543 
C 1159.615898 560.023541 1159.648117 558.995118 1159.669597 557.966443 
C 1159.691077 556.937768 1159.701818 555.908896 1159.701818 554.879997 
L 1011.861818 554.88 
z
" style="fill: #7f7f7f"/>
   </g>
   <g id="matplotlib.axis_7"/>
   <g id="matplotlib.axis_8"/>
   <g id="text_4">
    <!-- R8 -->
    <g transform="translate(999.083318 401.04) scale(0.192 -0.192)">
     <defs>
      <path id="DejaVuSans-38" d="M 2034 2216 
Q 1584 2216 1326 1975 
Q 1069 1734 1069 1313 
Q 1069 891 1326 650 
Q 1584 409 2034 409 
Q 2484 409 2743 651 
Q 3003 894 3003 1313 
Q 3003 1734 2745 1975 
Q 2488 2216 2034 2216 
z
M 1403 2484 
Q 997 2584 770 2862 
Q 544 3141 544 3541 
Q 544 4100 942 4425 
Q 1341 4750 2034 4750 
Q 2731 4750 3128 4425 
Q 3525 4100 3525 3541 
Q 3525 3141 3298 2862 
Q 3072 2584 2669 2484 
Q 3125 2378 3379 2068 
Q 3634 1759 3634 1313 
Q 3634 634 3220 271 
Q 2806 -91 2034 -91 
Q 1263 -91 848 271 
Q 434 634 434 1313 
Q 434 1759 690 2068 
Q 947 2378 1403 2484 
z
M 1172 3481 
Q 1172 3119 1398 2916 
Q 1625 2713 2034 2713 
Q 2441 2713 2670 2916 
Q 2900 3119 2900 3481 
Q 2900 3844 2670 4047 
Q 2441 4250 2034 4250 
Q 1625 4250 1398 4047 
Q 1172 3844 1172 3481 
z
" transform="scale(0.015625)"/>
     </defs>
     <use xlink:href="#DejaVuSans-52"/>
     <use xlink:href="#DejaVuSans-38" x="69.482422"/>
    </g>
   </g>
  </g>
  <g id="text_5">
   <!-- The ratio of label on other datasets -->
   <g transform="translate(550.404 28.989) scale(0.192 -0.192)">
    <defs>
     <path id="DejaVuSans-54" d="M -19 4666 
L 3928 4666 
L 3928 4134 
L 2272 4134 
L 2272 0 
L 1638 0 
L 1638 4134 
L -19 4134 
L -19 4666 
z
" transform="scale(0.015625)"/>
     <path id="DejaVuSans-20" transform="scale(0.015625)"/>
     <path id="DejaVuSans-72" d="M 2631 2963 
Q 2534 3019 2420 3045 
Q 2306 3072 2169 3072 
Q 1681 3072 1420 2755 
Q 1159 2438 1159 1844 
L 1159 0 
L 581 0 
L 581 3500 
L 1159 3500 
L 1159 2956 
Q 1341 3275 1631 3429 
Q 1922 3584 2338 3584 
Q 2397 3584 2469 3576 
Q 2541 3569 2628 3553 
L 2631 2963 
z
" transform="scale(0.015625)"/>
     <path id="DejaVuSans-61" d="M 2194 1759 
Q 1497 1759 1228 1600 
Q 959 1441 959 1056 
Q 959 750 1161 570 
Q 1363 391 1709 391 
Q 2188 391 2477 730 
Q 2766 1069 2766 1631 
L 2766 1759 
L 2194 1759 
z
M 3341 1997 
L 3341 0 
L 2766 0 
L 2766 531 
Q 2569 213 2275 61 
Q 1981 -91 1556 -91 
Q 1019 -91 701 211 
Q 384 513 384 1019 
Q 384 1609 779 1909 
Q 1175 2209 1959 2209 
L 2766 2209 
L 2766 2266 
Q 2766 2663 2505 2880 
Q 2244 3097 1772 3097 
Q 1472 3097 1187 3025 
Q 903 2953 641 2809 
L 641 3341 
Q 956 3463 1253 3523 
Q 1550 3584 1831 3584 
Q 2591 3584 2966 3190 
Q 3341 2797 3341 1997 
z
" transform="scale(0.015625)"/>
     <path id="DejaVuSans-74" d="M 1172 4494 
L 1172 3500 
L 2356 3500 
L 2356 3053 
L 1172 3053 
L 1172 1153 
Q 1172 725 1289 603 
Q 1406 481 1766 481 
L 2356 481 
L 2356 0 
L 1766 0 
Q 1100 0 847 248 
Q 594 497 594 1153 
L 594 3053 
L 172 3053 
L 172 3500 
L 594 3500 
L 594 4494 
L 1172 4494 
z
" transform="scale(0.015625)"/>
     <path id="DejaVuSans-69" d="M 603 3500 
L 1178 3500 
L 1178 0 
L 603 0 
L 603 3500 
z
M 603 4863 
L 1178 4863 
L 1178 4134 
L 603 4134 
L 603 4863 
z
" transform="scale(0.015625)"/>
     <path id="DejaVuSans-6f" d="M 1959 3097 
Q 1497 3097 1228 2736 
Q 959 2375 959 1747 
Q 959 1119 1226 758 
Q 1494 397 1959 397 
Q 2419 397 2687 759 
Q 2956 1122 2956 1747 
Q 2956 2369 2687 2733 
Q 2419 3097 1959 3097 
z
M 1959 3584 
Q 2709 3584 3137 3096 
Q 3566 2609 3566 1747 
Q 3566 888 3137 398 
Q 2709 -91 1959 -91 
Q 1206 -91 779 398 
Q 353 888 353 1747 
Q 353 2609 779 3096 
Q 1206 3584 1959 3584 
z
" transform="scale(0.015625)"/>
     <path id="DejaVuSans-66" d="M 2375 4863 
L 2375 4384 
L 1825 4384 
Q 1516 4384 1395 4259 
Q 1275 4134 1275 3809 
L 1275 3500 
L 2222 3500 
L 2222 3053 
L 1275 3053 
L 1275 0 
L 697 0 
L 697 3053 
L 147 3053 
L 147 3500 
L 697 3500 
L 697 3744 
Q 697 4328 969 4595 
Q 1241 4863 1831 4863 
L 2375 4863 
z
" transform="scale(0.015625)"/>
     <path id="DejaVuSans-6c" d="M 603 4863 
L 1178 4863 
L 1178 0 
L 603 0 
L 603 4863 
z
" transform="scale(0.015625)"/>
     <path id="DejaVuSans-62" d="M 3116 1747 
Q 3116 2381 2855 2742 
Q 2594 3103 2138 3103 
Q 1681 3103 1420 2742 
Q 1159 2381 1159 1747 
Q 1159 1113 1420 752 
Q 1681 391 2138 391 
Q 2594 391 2855 752 
Q 3116 1113 3116 1747 
z
M 1159 2969 
Q 1341 3281 1617 3432 
Q 1894 3584 2278 3584 
Q 2916 3584 3314 3078 
Q 3713 2572 3713 1747 
Q 3713 922 3314 415 
Q 2916 -91 2278 -91 
Q 1894 -91 1617 61 
Q 1341 213 1159 525 
L 1159 0 
L 581 0 
L 581 4863 
L 1159 4863 
L 1159 2969 
z
" transform="scale(0.015625)"/>
     <path id="DejaVuSans-6e" d="M 3513 2113 
L 3513 0 
L 2938 0 
L 2938 2094 
Q 2938 2591 2744 2837 
Q 2550 3084 2163 3084 
Q 1697 3084 1428 2787 
Q 1159 2491 1159 1978 
L 1159 0 
L 581 0 
L 581 3500 
L 1159 3500 
L 1159 2956 
Q 1366 3272 1645 3428 
Q 1925 3584 2291 3584 
Q 2894 3584 3203 3211 
Q 3513 2838 3513 2113 
z
" transform="scale(0.015625)"/>
    </defs>
    <use xlink:href="#DejaVuSans-54"/>
    <use xlink:href="#DejaVuSans-68" x="61.083984"/>
    <use xlink:href="#DejaVuSans-65" x="124.462891"/>
    <use xlink:href="#DejaVuSans-20" x="185.986328"/>
    <use xlink:href="#DejaVuSans-72" x="217.773438"/>
    <use xlink:href="#DejaVuSans-61" x="258.886719"/>
    <use xlink:href="#DejaVuSans-74" x="320.166016"/>
    <use xlink:href="#DejaVuSans-69" x="359.375"/>
    <use xlink:href="#DejaVuSans-6f" x="387.158203"/>
    <use xlink:href="#DejaVuSans-20" x="448.339844"/>
    <use xlink:href="#DejaVuSans-6f" x="480.126953"/>
    <use xlink:href="#DejaVuSans-66" x="541.308594"/>
    <use xlink:href="#DejaVuSans-20" x="576.513672"/>
    <use xlink:href="#DejaVuSans-6c" x="608.300781"/>
    <use xlink:href="#DejaVuSans-61" x="636.083984"/>
    <use xlink:href="#DejaVuSans-62" x="697.363281"/>
    <use xlink:href="#DejaVuSans-65" x="760.839844"/>
    <use xlink:href="#DejaVuSans-6c" x="822.363281"/>
    <use xlink:href="#DejaVuSans-20" x="850.146484"/>
    <use xlink:href="#DejaVuSans-6f" x="881.933594"/>
    <use xlink:href="#DejaVuSans-6e" x="943.115234"/>
    <use xlink:href="#DejaVuSans-20" x="1006.494141"/>
    <use xlink:href="#DejaVuSans-6f" x="1038.28125"/>
    <use xlink:href="#DejaVuSans-74" x="1099.462891"/>
    <use xlink:href="#DejaVuSans-68" x="1138.671875"/>
    <use xlink:href="#DejaVuSans-65" x="1202.050781"/>
    <use xlink:href="#DejaVuSans-72" x="1263.574219"/>
    <use xlink:href="#DejaVuSans-20" x="1304.6875"/>
    <use xlink:href="#DejaVuSans-64" x="1336.474609"/>
    <use xlink:href="#DejaVuSans-61" x="1399.951172"/>
    <use xlink:href="#DejaVuSans-74" x="1461.230469"/>
    <use xlink:href="#DejaVuSans-61" x="1500.439453"/>
    <use xlink:href="#DejaVuSans-73" x="1561.71875"/>
    <use xlink:href="#DejaVuSans-65" x="1613.818359"/>
    <use xlink:href="#DejaVuSans-74" x="1675.341797"/>
    <use xlink:href="#DejaVuSans-73" x="1714.550781"/>
   </g>
  </g>
 </g>
</svg>
