<?xml version="1.0" encoding="utf-8" standalone="no"?>
<!DOCTYPE svg PUBLIC "-//W3C//DTD SVG 1.1//EN"
  "http://www.w3.org/Graphics/SVG/1.1/DTD/svg11.dtd">
<svg xmlns:xlink="http://www.w3.org/1999/xlink" width="576pt" height="576pt" viewBox="0 0 576 576" xmlns="http://www.w3.org/2000/svg" version="1.1">
 <metadata>
  <rdf:RDF xmlns:dc="http://purl.org/dc/elements/1.1/" xmlns:cc="http://creativecommons.org/ns#" xmlns:rdf="http://www.w3.org/1999/02/22-rdf-syntax-ns#">
   <cc:Work>
    <dc:type rdf:resource="http://purl.org/dc/dcmitype/StillImage"/>
    <dc:date>2023-12-17T20:23:39.503061</dc:date>
    <dc:format>image/svg+xml</dc:format>
    <dc:creator>
     <cc:Agent>
      <dc:title>Matplotlib v3.8.0, https://matplotlib.org/</dc:title>
     </cc:Agent>
    </dc:creator>
   </cc:Work>
  </rdf:RDF>
 </metadata>
 <defs>
  <style type="text/css">*{stroke-linejoin: round; stroke-linecap: butt}</style>
 </defs>
 <g id="figure_1">
  <g id="patch_1">
   <path d="M 0 576 
L 576 576 
L 576 0 
L 0 0 
L 0 576 
z
" style="fill: none"/>
  </g>
  <g id="axes_1">
   <g id="patch_2">
    <path d="M 496.416 298.2 
C 496.416 250.711092 480.185026 204.619333 450.429005 167.608854 
C 420.672983 130.598374 379.142791 104.846911 332.762081 94.647586 
C 286.381372 84.448262 237.879238 90.401216 195.34165 111.514009 
C 152.804062 132.626802 118.733979 167.657135 98.811352 210.764969 
L 288 298.2 
z
" style="fill: #1f77b4"/>
   </g>
   <g id="patch_3">
    <path d="M 98.811352 210.764969 
C 87.243139 235.795836 80.75673 262.875448 79.728849 290.431052 
C 78.700967 317.986656 83.151906 345.474255 92.823158 371.297398 
C 102.494411 397.120541 117.19505 420.769434 136.071279 440.870574 
C 154.947507 460.971715 177.626674 477.12827 202.791599 488.401886 
L 288 298.2 
z
" style="fill: #ff7f0e"/>
   </g>
   <g id="patch_4">
    <path d="M 202.791599 488.401886 
C 210.980477 492.070415 219.39773 495.206278 227.990795 497.78989 
C 236.58386 500.373503 245.334814 502.399478 254.189012 503.855163 
L 288 298.2 
z
" style="fill: #2ca02c"/>
   </g>
   <g id="patch_5">
    <path d="M 254.189012 503.855163 
C 261.906198 505.123917 269.688686 505.957285 277.49954 506.351314 
C 285.310394 506.745342 293.13724 506.699407 300.942931 506.213725 
L 288 298.2 
z
" style="fill: #d62728"/>
   </g>
   <g id="patch_6">
    <path d="M 300.942931 506.213725 
C 307.95812 505.777229 314.94674 504.986135 321.881993 503.843477 
C 328.817247 502.700819 335.690259 501.208058 342.474677 499.370919 
L 288 298.2 
z
" style="fill: #9467bd"/>
   </g>
   <g id="patch_7">
    <path d="M 342.474677 499.370919 
C 348.749492 497.671774 354.941374 495.679979 361.030011 493.402066 
C 367.118648 491.124153 373.097376 488.562617 378.946581 485.725861 
L 288 298.2 
z
" style="fill: #8c564b"/>
   </g>
   <g id="patch_8">
    <path d="M 378.946581 485.725861 
C 382.205323 484.145431 385.422315 482.480327 388.594279 480.732244 
C 391.766244 478.984161 394.892104 477.153693 397.968674 475.242706 
L 288 298.2 
z
" style="fill: #e377c2"/>
   </g>
   <g id="patch_9">
    <path d="M 397.968674 475.242706 
C 400.902606 473.420317 403.790785 471.525279 406.630533 469.559346 
C 409.470282 467.593414 412.260723 465.557195 414.999271 463.452577 
L 288 298.2 
z
" style="fill: #7f7f7f"/>
   </g>
   <g id="patch_10">
    <path d="M 414.999271 463.452577 
C 417.319396 461.669524 419.601712 459.837807 421.844703 457.958644 
C 424.087694 456.079482 426.290861 454.153291 428.452739 452.181353 
L 288 298.2 
z
" style="fill: #bcbd22"/>
   </g>
   <g id="patch_11">
    <path d="M 428.452739 452.181353 
C 430.437403 450.37106 432.386882 448.522565 434.300083 446.636905 
C 436.213284 444.751245 438.089851 442.828773 439.92873 440.870565 
L 288 298.2 
z
" style="fill: #17becf"/>
   </g>
   <g id="patch_12">
    <path d="M 439.92873 440.870565 
C 441.406384 439.297023 442.859503 437.70062 444.287561 436.081932 
C 445.715619 434.463245 447.118444 432.82247 448.495527 431.160201 
L 288 298.2 
z
" style="fill: #1f77b4"/>
   </g>
   <g id="patch_13">
    <path d="M 448.495527 431.160201 
C 449.612486 429.811925 450.712412 428.449628 451.795041 427.073634 
C 452.877671 425.69764 453.942919 424.308058 454.990531 422.905219 
L 288 298.2 
z
" style="fill: #ff7f0e"/>
   </g>
   <g id="patch_14">
    <path d="M 454.990531 422.905219 
C 456.00944 421.540816 457.01159 420.163976 457.996753 418.77501 
C 458.981917 417.386044 459.95002 415.985056 460.900846 414.572362 
L 288 298.2 
z
" style="fill: #2ca02c"/>
   </g>
   <g id="patch_15">
    <path d="M 460.900846 414.572362 
C 461.71775 413.358643 462.521851 412.136356 463.313016 410.905704 
C 464.10418 409.675052 464.882365 408.436103 465.64744 407.189064 
L 288 298.2 
z
" style="fill: #d62728"/>
   </g>
   <g id="patch_16">
    <path d="M 465.64744 407.189064 
C 466.287091 406.146461 466.917551 405.098246 467.538747 404.044543 
C 468.159943 402.99084 468.771851 401.931688 469.3744 400.867211 
L 288 298.2 
z
" style="fill: #9467bd"/>
   </g>
   <g id="patch_17">
    <path d="M 469.3744 400.867211 
C 469.965133 399.823607 470.546849 398.774923 471.119481 397.721278 
C 471.692113 396.667632 472.255641 395.609064 472.810002 394.545692 
L 288 298.2 
z
" style="fill: #8c564b"/>
   </g>
   <g id="patch_18">
    <path d="M 472.810002 394.545692 
C 473.353275 393.503587 473.887724 392.456906 474.413291 391.405761 
C 474.938859 390.354615 475.455527 389.299043 475.963238 388.239158 
L 288 298.2 
z
" style="fill: #e377c2"/>
   </g>
   <g id="patch_19">
    <path d="M 475.963238 388.239158 
C 476.47095 387.179273 476.969688 386.115113 477.459399 385.046791 
C 477.94911 383.978469 478.429776 382.906025 478.901345 381.829572 
L 288 298.2 
z
" style="fill: #7f7f7f"/>
   </g>
   <g id="patch_20">
    <path d="M 478.901345 381.829572 
C 479.324795 380.862963 479.740897 379.893152 480.149616 378.920222 
C 480.558334 377.947292 480.959657 376.971272 481.35355 375.992246 
L 288 298.2 
z
" style="fill: #bcbd22"/>
   </g>
   <g id="patch_21">
    <path d="M 481.35355 375.992246 
C 481.747443 375.01322 482.133895 374.031217 482.512872 373.046321 
C 482.891848 372.061425 483.263339 371.073665 483.627312 370.083127 
L 288 298.2 
z
" style="fill: #17becf"/>
   </g>
   <g id="patch_22">
    <path d="M 483.627312 370.083127 
C 483.958196 369.182638 484.282859 368.279875 484.601277 367.374902 
C 484.919695 366.46993 485.23186 365.56277 485.537751 364.653487 
L 288 298.2 
z
" style="fill: #1f77b4"/>
   </g>
   <g id="patch_23">
    <path d="M 485.537751 364.653487 
C 485.828348 363.789668 486.113275 362.923953 486.392514 362.056397 
C 486.671754 361.188841 486.945299 360.319462 487.213134 359.448317 
L 288 298.2 
z
" style="fill: #ff7f0e"/>
   </g>
   <g id="patch_24">
    <path d="M 487.213134 359.448317 
C 487.466872 358.623022 487.715479 357.796159 487.95894 356.967774 
C 488.202402 356.13939 488.440713 355.3095 488.673861 354.478154 
L 288 298.2 
z
" style="fill: #2ca02c"/>
   </g>
   <g id="patch_25">
    <path d="M 488.673861 354.478154 
C 488.874627 353.762273 489.07156 353.045323 489.264653 352.327335 
C 489.457746 351.609346 489.646996 350.89033 489.832394 350.170316 
L 288 298.2 
z
" style="fill: #d62728"/>
   </g>
   <g id="patch_26">
    <path d="M 489.832394 350.170316 
C 490.011812 349.473529 490.18762 348.775817 490.359811 348.077208 
C 490.532003 347.3786 490.700575 346.679105 490.865522 345.978751 
L 288 298.2 
z
" style="fill: #9467bd"/>
   </g>
   <g id="patch_27">
    <path d="M 490.865522 345.978751 
C 491.013974 345.348432 491.159488 344.717425 491.302058 344.08575 
C 491.444629 343.454076 491.584255 342.82174 491.720931 342.188763 
L 288 298.2 
z
" style="fill: #8c564b"/>
   </g>
   <g id="patch_28">
    <path d="M 491.720931 342.188763 
C 491.842421 341.626118 491.96158 341.062972 492.078404 340.499339 
C 492.195228 339.935707 492.309717 339.371592 492.421867 338.807011 
L 288 298.2 
z
" style="fill: #e377c2"/>
   </g>
   <g id="patch_29">
    <path d="M 492.421867 338.807011 
C 492.529344 338.265954 492.634673 337.724473 492.737851 337.182579 
C 492.841029 336.640686 492.942055 336.098385 493.040926 335.55569 
L 288 298.2 
z
" style="fill: #7f7f7f"/>
   </g>
   <g id="patch_30">
    <path d="M 493.040926 335.55569 
C 493.135499 335.03659 493.228101 334.517133 493.318728 333.99733 
C 493.409356 333.477526 493.49801 332.957381 493.584687 332.436904 
L 288 298.2 
z
" style="fill: #bcbd22"/>
   </g>
   <g id="patch_31">
    <path d="M 493.584687 332.436904 
C 493.663484 331.963744 493.740648 331.490313 493.816177 331.016619 
C 493.891705 330.542926 493.965598 330.068974 494.037854 329.59477 
L 288 298.2 
z
" style="fill: #17becf"/>
   </g>
   <g id="patch_32">
    <path d="M 494.037854 329.59477 
C 494.106498 329.144277 494.173663 328.69356 494.23935 328.242626 
C 494.305037 327.791692 494.369245 327.340544 494.431973 326.88919 
L 288 298.2 
z
" style="fill: #1f77b4"/>
   </g>
   <g id="patch_33">
    <path d="M 494.431973 326.88919 
C 494.491399 326.46159 494.549497 326.033807 494.606265 325.605847 
C 494.663033 325.177886 494.718471 324.749751 494.772578 324.321446 
L 288 298.2 
z
" style="fill: #ff7f0e"/>
   </g>
   <g id="patch_34">
    <path d="M 494.772578 324.321446 
C 494.826686 323.893141 494.879462 323.464669 494.930907 323.036036 
C 494.982352 322.607403 495.032465 322.178612 495.081245 321.749667 
L 288 298.2 
z
" style="fill: #2ca02c"/>
   </g>
   <g id="patch_35">
    <path d="M 495.081245 321.749667 
C 495.127316 321.344553 495.172197 320.939305 495.215889 320.533928 
C 495.259581 320.12855 495.302083 319.723045 495.343396 319.317419 
L 288 298.2 
z
" style="fill: #d62728"/>
   </g>
   <g id="patch_36">
    <path d="M 495.343396 319.317419 
C 495.379847 318.959513 495.415373 318.601513 495.44997 318.243423 
C 495.484568 317.885333 495.518239 317.527154 495.550982 317.16889 
L 288 298.2 
z
" style="fill: #9467bd"/>
   </g>
   <g id="patch_37">
    <path d="M 495.550982 317.16889 
C 495.581543 316.83451 495.611295 316.500057 495.640239 316.165533 
C 495.669182 315.831009 495.697318 315.496416 495.724644 315.161756 
L 288 298.2 
z
" style="fill: #8c564b"/>
   </g>
   <g id="patch_38">
    <path d="M 495.724644 315.161756 
C 495.750019 314.851001 495.774697 314.540188 495.798676 314.229322 
C 495.822656 313.918456 495.845938 313.607536 495.868523 313.296566 
L 288 298.2 
z
" style="fill: #e377c2"/>
   </g>
   <g id="patch_39">
    <path d="M 495.868523 313.296566 
C 495.887633 313.033437 495.906243 312.770272 495.924353 312.507072 
C 495.942464 312.243872 495.960075 311.980638 495.977186 311.717372 
L 288 298.2 
z
" style="fill: #7f7f7f"/>
   </g>
   <g id="patch_40">
    <path d="M 495.977186 311.717372 
C 495.994296 311.454105 496.010907 311.190806 496.027018 310.927477 
C 496.043129 310.664147 496.05874 310.400787 496.073851 310.137398 
L 288 298.2 
z
" style="fill: #bcbd22"/>
   </g>
   <g id="patch_41">
    <path d="M 496.073851 310.137398 
C 496.088962 309.874009 496.103573 309.610592 496.117683 309.347147 
C 496.131794 309.083703 496.145404 308.820232 496.158514 308.556736 
L 288 298.2 
z
" style="fill: #17becf"/>
   </g>
   <g id="patch_42">
    <path d="M 496.158514 308.556736 
C 496.171624 308.29324 496.184234 308.029719 496.196343 307.766175 
C 496.208453 307.502631 496.220061 307.239064 496.23117 306.975476 
L 288 298.2 
z
" style="fill: #1f77b4"/>
   </g>
   <g id="patch_43">
    <path d="M 496.23117 306.975476 
C 496.241268 306.735851 496.250953 306.496208 496.260224 306.256549 
C 496.269496 306.01689 496.278353 305.777215 496.286797 305.537526 
L 288 298.2 
z
" style="fill: #ff7f0e"/>
   </g>
   <g id="patch_44">
    <path d="M 496.286797 305.537526 
C 496.293552 305.345774 496.300042 305.154013 496.306268 304.962244 
C 496.312493 304.770474 496.318454 304.578696 496.324149 304.38691 
L 288 298.2 
z
" style="fill: #2ca02c"/>
   </g>
   <g id="patch_45">
    <path d="M 496.324149 304.38691 
C 496.329133 304.219097 496.333914 304.051279 496.338492 303.883454 
C 496.343071 303.71563 496.347446 303.5478 496.351619 303.379965 
L 288 298.2 
z
" style="fill: #d62728"/>
   </g>
   <g id="patch_46">
    <path d="M 496.351619 303.379965 
C 496.355195 303.236107 496.358623 303.092245 496.361901 302.948379 
C 496.36518 302.804514 496.36831 302.660645 496.37129 302.516773 
L 288 298.2 
z
" style="fill: #9467bd"/>
   </g>
   <g id="patch_47">
    <path d="M 496.37129 302.516773 
C 496.374271 302.372901 496.377102 302.229026 496.379785 302.085148 
C 496.382467 301.94127 496.385001 301.797389 496.387385 301.653506 
L 288 298.2 
z
" style="fill: #8c564b"/>
   </g>
   <g id="patch_48">
    <path d="M 496.387385 301.653506 
C 496.389372 301.533603 496.391256 301.413699 496.393036 301.293793 
C 496.394816 301.173887 496.396493 301.05398 496.398066 300.934071 
L 288 298.2 
z
" style="fill: #e377c2"/>
   </g>
   <g id="patch_49">
    <path d="M 496.398066 300.934071 
C 496.399639 300.814162 496.401109 300.694252 496.402475 300.574341 
C 496.403841 300.45443 496.405104 300.334517 496.406263 300.214604 
L 288 298.2 
z
" style="fill: #7f7f7f"/>
   </g>
   <g id="patch_50">
    <path d="M 496.406263 300.214604 
C 496.40719 300.118673 496.408051 300.022741 496.408846 299.926809 
C 496.409641 299.830878 496.41037 299.734945 496.411032 299.639012 
L 288 298.2 
z
" style="fill: #bcbd22"/>
   </g>
   <g id="patch_51">
    <path d="M 496.411032 299.639012 
C 496.411694 299.543079 496.412291 299.447146 496.412821 299.351212 
C 496.41335 299.255278 496.413814 299.159344 496.414212 299.063409 
L 288 298.2 
z
" style="fill: #17becf"/>
   </g>
   <g id="patch_52">
    <path d="M 496.414212 299.063409 
C 496.41451 298.991459 496.41477 298.919508 496.414994 298.847556 
C 496.415218 298.775605 496.415404 298.703654 496.415553 298.631703 
L 288 298.2 
z
" style="fill: #1f77b4"/>
   </g>
   <g id="patch_53">
    <path d="M 496.415553 298.631703 
C 496.415702 298.559752 496.415814 298.4878 496.415888 298.415849 
C 496.415963 298.343897 496.416 298.271946 496.416 298.199995 
L 288 298.2 
z
" style="fill: #ff7f0e"/>
   </g>
   <g id="matplotlib.axis_1"/>
   <g id="matplotlib.axis_2"/>
   <g id="text_1">
    <!-- The ratio of label on R52 dataset -->
    <g transform="translate(130.0935 31.68) scale(0.192 -0.192)">
     <defs>
      <path id="DejaVuSans-54" d="M -19 4666 
L 3928 4666 
L 3928 4134 
L 2272 4134 
L 2272 0 
L 1638 0 
L 1638 4134 
L -19 4134 
L -19 4666 
z
" transform="scale(0.015625)"/>
      <path id="DejaVuSans-68" d="M 3513 2113 
L 3513 0 
L 2938 0 
L 2938 2094 
Q 2938 2591 2744 2837 
Q 2550 3084 2163 3084 
Q 1697 3084 1428 2787 
Q 1159 2491 1159 1978 
L 1159 0 
L 581 0 
L 581 4863 
L 1159 4863 
L 1159 2956 
Q 1366 3272 1645 3428 
Q 1925 3584 2291 3584 
Q 2894 3584 3203 3211 
Q 3513 2838 3513 2113 
z
" transform="scale(0.015625)"/>
      <path id="DejaVuSans-65" d="M 3597 1894 
L 3597 1613 
L 953 1613 
Q 991 1019 1311 708 
Q 1631 397 2203 397 
Q 2534 397 2845 478 
Q 3156 559 3463 722 
L 3463 178 
Q 3153 47 2828 -22 
Q 2503 -91 2169 -91 
Q 1331 -91 842 396 
Q 353 884 353 1716 
Q 353 2575 817 3079 
Q 1281 3584 2069 3584 
Q 2775 3584 3186 3129 
Q 3597 2675 3597 1894 
z
M 3022 2063 
Q 3016 2534 2758 2815 
Q 2500 3097 2075 3097 
Q 1594 3097 1305 2825 
Q 1016 2553 972 2059 
L 3022 2063 
z
" transform="scale(0.015625)"/>
      <path id="DejaVuSans-20" transform="scale(0.015625)"/>
      <path id="DejaVuSans-72" d="M 2631 2963 
Q 2534 3019 2420 3045 
Q 2306 3072 2169 3072 
Q 1681 3072 1420 2755 
Q 1159 2438 1159 1844 
L 1159 0 
L 581 0 
L 581 3500 
L 1159 3500 
L 1159 2956 
Q 1341 3275 1631 3429 
Q 1922 3584 2338 3584 
Q 2397 3584 2469 3576 
Q 2541 3569 2628 3553 
L 2631 2963 
z
" transform="scale(0.015625)"/>
      <path id="DejaVuSans-61" d="M 2194 1759 
Q 1497 1759 1228 1600 
Q 959 1441 959 1056 
Q 959 750 1161 570 
Q 1363 391 1709 391 
Q 2188 391 2477 730 
Q 2766 1069 2766 1631 
L 2766 1759 
L 2194 1759 
z
M 3341 1997 
L 3341 0 
L 2766 0 
L 2766 531 
Q 2569 213 2275 61 
Q 1981 -91 1556 -91 
Q 1019 -91 701 211 
Q 384 513 384 1019 
Q 384 1609 779 1909 
Q 1175 2209 1959 2209 
L 2766 2209 
L 2766 2266 
Q 2766 2663 2505 2880 
Q 2244 3097 1772 3097 
Q 1472 3097 1187 3025 
Q 903 2953 641 2809 
L 641 3341 
Q 956 3463 1253 3523 
Q 1550 3584 1831 3584 
Q 2591 3584 2966 3190 
Q 3341 2797 3341 1997 
z
" transform="scale(0.015625)"/>
      <path id="DejaVuSans-74" d="M 1172 4494 
L 1172 3500 
L 2356 3500 
L 2356 3053 
L 1172 3053 
L 1172 1153 
Q 1172 725 1289 603 
Q 1406 481 1766 481 
L 2356 481 
L 2356 0 
L 1766 0 
Q 1100 0 847 248 
Q 594 497 594 1153 
L 594 3053 
L 172 3053 
L 172 3500 
L 594 3500 
L 594 4494 
L 1172 4494 
z
" transform="scale(0.015625)"/>
      <path id="DejaVuSans-69" d="M 603 3500 
L 1178 3500 
L 1178 0 
L 603 0 
L 603 3500 
z
M 603 4863 
L 1178 4863 
L 1178 4134 
L 603 4134 
L 603 4863 
z
" transform="scale(0.015625)"/>
      <path id="DejaVuSans-6f" d="M 1959 3097 
Q 1497 3097 1228 2736 
Q 959 2375 959 1747 
Q 959 1119 1226 758 
Q 1494 397 1959 397 
Q 2419 397 2687 759 
Q 2956 1122 2956 1747 
Q 2956 2369 2687 2733 
Q 2419 3097 1959 3097 
z
M 1959 3584 
Q 2709 3584 3137 3096 
Q 3566 2609 3566 1747 
Q 3566 888 3137 398 
Q 2709 -91 1959 -91 
Q 1206 -91 779 398 
Q 353 888 353 1747 
Q 353 2609 779 3096 
Q 1206 3584 1959 3584 
z
" transform="scale(0.015625)"/>
      <path id="DejaVuSans-66" d="M 2375 4863 
L 2375 4384 
L 1825 4384 
Q 1516 4384 1395 4259 
Q 1275 4134 1275 3809 
L 1275 3500 
L 2222 3500 
L 2222 3053 
L 1275 3053 
L 1275 0 
L 697 0 
L 697 3053 
L 147 3053 
L 147 3500 
L 697 3500 
L 697 3744 
Q 697 4328 969 4595 
Q 1241 4863 1831 4863 
L 2375 4863 
z
" transform="scale(0.015625)"/>
      <path id="DejaVuSans-6c" d="M 603 4863 
L 1178 4863 
L 1178 0 
L 603 0 
L 603 4863 
z
" transform="scale(0.015625)"/>
      <path id="DejaVuSans-62" d="M 3116 1747 
Q 3116 2381 2855 2742 
Q 2594 3103 2138 3103 
Q 1681 3103 1420 2742 
Q 1159 2381 1159 1747 
Q 1159 1113 1420 752 
Q 1681 391 2138 391 
Q 2594 391 2855 752 
Q 3116 1113 3116 1747 
z
M 1159 2969 
Q 1341 3281 1617 3432 
Q 1894 3584 2278 3584 
Q 2916 3584 3314 3078 
Q 3713 2572 3713 1747 
Q 3713 922 3314 415 
Q 2916 -91 2278 -91 
Q 1894 -91 1617 61 
Q 1341 213 1159 525 
L 1159 0 
L 581 0 
L 581 4863 
L 1159 4863 
L 1159 2969 
z
" transform="scale(0.015625)"/>
      <path id="DejaVuSans-6e" d="M 3513 2113 
L 3513 0 
L 2938 0 
L 2938 2094 
Q 2938 2591 2744 2837 
Q 2550 3084 2163 3084 
Q 1697 3084 1428 2787 
Q 1159 2491 1159 1978 
L 1159 0 
L 581 0 
L 581 3500 
L 1159 3500 
L 1159 2956 
Q 1366 3272 1645 3428 
Q 1925 3584 2291 3584 
Q 2894 3584 3203 3211 
Q 3513 2838 3513 2113 
z
" transform="scale(0.015625)"/>
      <path id="DejaVuSans-52" d="M 2841 2188 
Q 3044 2119 3236 1894 
Q 3428 1669 3622 1275 
L 4263 0 
L 3584 0 
L 2988 1197 
Q 2756 1666 2539 1819 
Q 2322 1972 1947 1972 
L 1259 1972 
L 1259 0 
L 628 0 
L 628 4666 
L 2053 4666 
Q 2853 4666 3247 4331 
Q 3641 3997 3641 3322 
Q 3641 2881 3436 2590 
Q 3231 2300 2841 2188 
z
M 1259 4147 
L 1259 2491 
L 2053 2491 
Q 2509 2491 2742 2702 
Q 2975 2913 2975 3322 
Q 2975 3731 2742 3939 
Q 2509 4147 2053 4147 
L 1259 4147 
z
" transform="scale(0.015625)"/>
      <path id="DejaVuSans-35" d="M 691 4666 
L 3169 4666 
L 3169 4134 
L 1269 4134 
L 1269 2991 
Q 1406 3038 1543 3061 
Q 1681 3084 1819 3084 
Q 2600 3084 3056 2656 
Q 3513 2228 3513 1497 
Q 3513 744 3044 326 
Q 2575 -91 1722 -91 
Q 1428 -91 1123 -41 
Q 819 9 494 109 
L 494 744 
Q 775 591 1075 516 
Q 1375 441 1709 441 
Q 2250 441 2565 725 
Q 2881 1009 2881 1497 
Q 2881 1984 2565 2268 
Q 2250 2553 1709 2553 
Q 1456 2553 1204 2497 
Q 953 2441 691 2322 
L 691 4666 
z
" transform="scale(0.015625)"/>
      <path id="DejaVuSans-32" d="M 1228 531 
L 3431 531 
L 3431 0 
L 469 0 
L 469 531 
Q 828 903 1448 1529 
Q 2069 2156 2228 2338 
Q 2531 2678 2651 2914 
Q 2772 3150 2772 3378 
Q 2772 3750 2511 3984 
Q 2250 4219 1831 4219 
Q 1534 4219 1204 4116 
Q 875 4013 500 3803 
L 500 4441 
Q 881 4594 1212 4672 
Q 1544 4750 1819 4750 
Q 2544 4750 2975 4387 
Q 3406 4025 3406 3419 
Q 3406 3131 3298 2873 
Q 3191 2616 2906 2266 
Q 2828 2175 2409 1742 
Q 1991 1309 1228 531 
z
" transform="scale(0.015625)"/>
      <path id="DejaVuSans-64" d="M 2906 2969 
L 2906 4863 
L 3481 4863 
L 3481 0 
L 2906 0 
L 2906 525 
Q 2725 213 2448 61 
Q 2172 -91 1784 -91 
Q 1150 -91 751 415 
Q 353 922 353 1747 
Q 353 2572 751 3078 
Q 1150 3584 1784 3584 
Q 2172 3584 2448 3432 
Q 2725 3281 2906 2969 
z
M 947 1747 
Q 947 1113 1208 752 
Q 1469 391 1925 391 
Q 2381 391 2643 752 
Q 2906 1113 2906 1747 
Q 2906 2381 2643 2742 
Q 2381 3103 1925 3103 
Q 1469 3103 1208 2742 
Q 947 2381 947 1747 
z
" transform="scale(0.015625)"/>
      <path id="DejaVuSans-73" d="M 2834 3397 
L 2834 2853 
Q 2591 2978 2328 3040 
Q 2066 3103 1784 3103 
Q 1356 3103 1142 2972 
Q 928 2841 928 2578 
Q 928 2378 1081 2264 
Q 1234 2150 1697 2047 
L 1894 2003 
Q 2506 1872 2764 1633 
Q 3022 1394 3022 966 
Q 3022 478 2636 193 
Q 2250 -91 1575 -91 
Q 1294 -91 989 -36 
Q 684 19 347 128 
L 347 722 
Q 666 556 975 473 
Q 1284 391 1588 391 
Q 1994 391 2212 530 
Q 2431 669 2431 922 
Q 2431 1156 2273 1281 
Q 2116 1406 1581 1522 
L 1381 1569 
Q 847 1681 609 1914 
Q 372 2147 372 2553 
Q 372 3047 722 3315 
Q 1072 3584 1716 3584 
Q 2034 3584 2315 3537 
Q 2597 3491 2834 3397 
z
" transform="scale(0.015625)"/>
     </defs>
     <use xlink:href="#DejaVuSans-54"/>
     <use xlink:href="#DejaVuSans-68" x="61.083984"/>
     <use xlink:href="#DejaVuSans-65" x="124.462891"/>
     <use xlink:href="#DejaVuSans-20" x="185.986328"/>
     <use xlink:href="#DejaVuSans-72" x="217.773438"/>
     <use xlink:href="#DejaVuSans-61" x="258.886719"/>
     <use xlink:href="#DejaVuSans-74" x="320.166016"/>
     <use xlink:href="#DejaVuSans-69" x="359.375"/>
     <use xlink:href="#DejaVuSans-6f" x="387.158203"/>
     <use xlink:href="#DejaVuSans-20" x="448.339844"/>
     <use xlink:href="#DejaVuSans-6f" x="480.126953"/>
     <use xlink:href="#DejaVuSans-66" x="541.308594"/>
     <use xlink:href="#DejaVuSans-20" x="576.513672"/>
     <use xlink:href="#DejaVuSans-6c" x="608.300781"/>
     <use xlink:href="#DejaVuSans-61" x="636.083984"/>
     <use xlink:href="#DejaVuSans-62" x="697.363281"/>
     <use xlink:href="#DejaVuSans-65" x="760.839844"/>
     <use xlink:href="#DejaVuSans-6c" x="822.363281"/>
     <use xlink:href="#DejaVuSans-20" x="850.146484"/>
     <use xlink:href="#DejaVuSans-6f" x="881.933594"/>
     <use xlink:href="#DejaVuSans-6e" x="943.115234"/>
     <use xlink:href="#DejaVuSans-20" x="1006.494141"/>
     <use xlink:href="#DejaVuSans-52" x="1038.28125"/>
     <use xlink:href="#DejaVuSans-35" x="1107.763672"/>
     <use xlink:href="#DejaVuSans-32" x="1171.386719"/>
     <use xlink:href="#DejaVuSans-20" x="1235.009766"/>
     <use xlink:href="#DejaVuSans-64" x="1266.796875"/>
     <use xlink:href="#DejaVuSans-61" x="1330.273438"/>
     <use xlink:href="#DejaVuSans-74" x="1391.552734"/>
     <use xlink:href="#DejaVuSans-61" x="1430.761719"/>
     <use xlink:href="#DejaVuSans-73" x="1492.041016"/>
     <use xlink:href="#DejaVuSans-65" x="1544.140625"/>
     <use xlink:href="#DejaVuSans-74" x="1605.664062"/>
    </g>
   </g>
  </g>
 </g>
</svg>
